<svg version="1" xmlns="http://www.w3.org/2000/svg" width="346.667" height="346.667" viewBox="0 0 260.000000 260.000000"><path d="M104.5 40.2c-7 1.8-11.6 9.5-13.5 22.3-3.2 21.3.2 37.9 9.6 47 7.3 7.1 9.8 11.9 9.6 18.3-.2 6.5-2.2 9.7-4.6 7.2-.8-.8-6.3-12.1-12.1-25s-11.2-24.1-12-24.8c-1.1-1.2-3-.7-12.1 2.6l-10.9 4-1.8-2.3c-1.5-2-2.4-2.3-5-1.8-5 1-11.7 4.1-11.8 5.5-.1.7-.2 2.2-.3 3.3-.1 1.6-2.5 2.9-12.6 6.6-13.5 5-17 7-17 9.7.1.9 9.4 22.4 20.8 47.7 14.4 31.9 21.3 46.1 22.5 46.3 1.4.3 11.8-5.2 22.2-11.8 9.5-6 26.2-15.8 27-15.9.6-.1 1.1 1.6 1.2 3.7.1 4.3 2.8 9.9 7 14.6 1.5 1.7 2.7 3.5 2.5 3.9-.1.5.2.6.7.3.5-.4 1.2 0 1.4.6.4 1 .6 1 .6 0 .1-1.7 7.1 3.6 7.1 5.4 0 .7.8 1.8 1.8 2.4 1.3.9 1.3 1 .1.7-.9-.3-2.2-.1-3 .3-.8.6-2 .3-3-.6-.9-.8-2-1.4-2.5-1.2-.5.2-.9-.2-.9-.7 0-.6.4-.9.8-.7.5.1.6-.3.2-1-.4-.7.1-.4.9.6.9 1.1 1.6 1.4 1.6.8 0-.7.3-1.1.8-1 .4.2.8 0 1-.5.5-1.7.1-1.9-1.5-.6-1.5 1.2-1.6 1.2-1-.3.3-1 .1-2-.5-2.4-.7-.4-.8-.3-.4.4s.1 1.2-.6 1.2c-1.5 0-4.1 3.7-3.4 4.9.3.4-.1 1.7-.9 2.7-1 1.4-1.6 1.6-2.5.7-1.6-1.5-.4-3.4 1.8-2.7 1.3.5 1.4.4.4-.4-2-1.3-1.9-1.9.2-3.5 1-.8 1.6-2 1.3-2.8-.4-1-.6-.9-.6.3-.1 2.3-1.8 2.3-2.5.1-.2-1-.3-.3-.1 1.5.2 2.2 0 3.2-.8 2.9-.7-.2-1.1-1.3-.9-2.3.2-1.7.1-1.7-1-.4-1.5 1.8-7 2-7.6.2-.2-.8-1.2-.2-2.5 1.5-1.2 1.5-2.1 3.1-1.9 3.6.1.5-.2.6-.8.2-1.8-1.1-1.1 1.4 1 3.5 1.1 1.1 1.6 2 1.1 2-.6 0-1.3-.5-1.6-1-.3-.6-1.1-1-1.7-1-.6 0-.3.9.7 2s2.1 1.7 2.6 1.4c.5-.3 1.7-.1 2.7.5 1 .5 2.2.7 2.8.3 1.4-1 1.1-3.5-.4-4-.6-.2-1 .2-.9 1 .2.7.2 1 0 .5-.3-.4-1-.4-1.6-.1-.7.4-.4-.1.5-1.1 1.4-1.5 2-1.6 3.2-.6 1.1.9 1.5.9 1.9-.1.2-.7.7-1 1.1-.7.4.4 0 1.3-.8 2.1-1.1 1.2-1.2 1.8-.3 2.7.8.8.8 1.4 0 2.2-.6.6-.9 1.9-.6 2.8.4 1.4.3 1.4-.6.1-.7-.9-1.1-1-1.1-.3 0 1.6 1.3 2.3 2.6 1.5 1-.7 1.4-2.2 1.5-6.6 0-1.7.1-1.7 1.5.3 1.2 1.7 1.9 1.9 2.9 1.1 1.9-1.6 4-.3 2.5 1.6-1 1.1-.6 1.3 2 .9 1.8-.2 3.8-1.2 4.7-2.2 1.3-1.7 1.4-1.7.5.2-.5 1.1-.7 2.6-.5 3.2.3.7 0 1.3-.7 1.3-.6 0-.9-.4-.6-.9.3-.5-1.2-.8-3.3-.7-2.2 0-3.7.4-3.4.8.2.5-.1.8-.6.8-.6 0-1.1-.5-1.1-1.1 0-.5-.4-.7-1-.4-.5.3-.7 0-.4-.8.3-.8.1-1.8-.5-2.2-1.2-.7-1 2.9.2 4.1 1.1 1.2 6.7 1.2 6 .1-.4-.7.1-.7 1.3-.2 1 .5 3.8.8 6.1.8s4.1.3 3.9.6c-.2.3.8.6 2.3.6 1.6.1 2.8-.5 2.8-1.2 0-.9-.4-1-1.4-.2-.9.9-1.3.8-1.3 0 0-.7-.5-.9-1.2-.5s-.8.3-.4-.4c1-1.6-.7-1.5-2.2 0-1 1-1.5 1-2.2-.2-.5-.8-1-2-1-2.5.1-.6.5-.2 1.1.8.8 1.4 1.4 1.5 2.4.7.9-.8 2-.8 3.2-.2 2.6 1.5 3.5 1.5 4.3.3.3-.6 1.5-1.3 2.6-1.5 1.4-.3 1.9.2 1.9 1.9 0 1.3-.3 2.1-.7 1.9-.4-.2-.9-.1-1.2.4-.2.4.4.9 1.5.9 1.6.2 1.9-.2 1.3-2-.6-2.1-.6-2.1.9-.3 1.4 1.9 1.5 1.9 2.6-.2.6-1.2 1.7-2.2 2.4-2.1.9 0 .9.2 0 .6-2 .7-1.5 1.9.7 2 1.1.1 1.8-.2 1.5-.8-.4-.5-.1-.9.5-.9.7 0 .9.8.5 1.9-.3 1 .1 2.3.9 3 1.3 1.1 1.4.8 1-1.6-.4-2.6-.3-2.7 1.1-.9.8 1 1.2 2.3.8 2.9-.3.6-.1.7.5.4 1.1-.8 1.1-2.5-.2-4.5-.4-.7-.5-1.6-.2-1.9.3-.4.6-.1.6.6s.5.9 1.2.5.8-.3.4.4-.2 1.2.4 1.2c.6 0 .9.4.6.9-.3.5.2 1.5 1.2 2.2 1.5 1.2 1.6 1.2.5-.2-1.1-1.3-.9-1.9.9-3.5 2-1.7 2.1-1.7.9-.1-1.2 1.6-1.2 2 .4 3.5 1 1 1.4 1.1 1 .3-.5-.9-.3-1.2.6-.9.8.3 1.3 1.1 1.1 1.8-.2 1 0 1.1 1.1.2.8-.7 1.8-.8 2.2-.4.5.4.5.1.1-.6s-1.2-.9-1.8-.6c-.7.5-.8.2-.3-.6.6-.9.4-1.1-.5-.5-.9.5-1.1.4-.6-.4.8-1.2 3-.1 4.8 2.4.5.6.8.6.8-.1 0-1.4 3.3-1.4 4.2 0 .5.7.8.7.8-.2 0-.7.5-1 1.2-.6.6.4.8.3.5-.3-.4-.6-2.3-1-4.2-.8-3.7.2-6.6-1.7-4.4-3.1.7-.4.9-.3.5.4-.3.6-.2 1.3.4 1.7.5.3 1-.1 1-.9s.4-1.7.9-2c.5-.4.7.3.4 1.5-.5 1.9-.4 2 1.5 1 1.5-.8 2.3-.8 2.8 0s1.2.6 2.2-.7c1.3-1.8 1.4-1.8.7.6-.6 2-.5 2.3.6 1.3 1.8-1.8 3.4-1.6 2 .1-.9 1.1-.9 1.6 0 2.2.8.4.9.3.5-.4s-.1-1.2.9-1.2c1.2 0 1.5-.5 1.1-1.7-.4-1-.4-1.4 0-1 .4.4 1.3.2 2.1-.5 1.1-.9 1.2-.7.7.8-.4 1-1.2 2.6-1.8 3.4-.9 1.3-.9 1.3.6.2 1-.8 2.3-1 3-.6 1.1.6 1.1.5 0-.8-1-1.3-1-1.8-.1-2.4.7-.4.9-.3.6.3-.4.6 0 1.3.8 1.7.8.3 1.7 0 2.1-.6.4-.6.3-.8-.3-.5-.5.3-1 0-1-.8 0-1.1.4-1.2 1.4-.3.7.6 1.1 2 .8 3.2-.3 1.2-.2 1.5.1.8.3-.7 1.5-1.7 2.6-2.3 1.8-1 2-.9 1.4.7-.5 1.6-.4 1.7.6.4 1.7-2 5.3-2.7 4.2-.8-.6 1-.4 1 .9-.1 1.6-1.2 2.2-.8 1.8 1.2-.1.5.3.6.9.2.8-.5.8-1.1 0-2-.8-.9-.8-1.5 0-2 .5-.3 1-.2 1 .4 0 1.1 4.7.8 5.8-.4.4-.4-.4-.4-1.7 0-1.4.4-2.1.3-1.8-.3.4-.5-.4-.8-1.7-.7-3.1.4-5.4-1.1-4-2.5.8-.8 1.4-.7 2.4.5.7.8 1.7 1.5 2.3 1.5.5 0 .2-.9-.9-2.1-1.3-1.4-1.4-2-.4-1.7.8.2 1.4-.2 1.5-.9 0-.7.7-2 1.5-3 .9-1 1.6-2.1 1.7-2.6.1-.4 1.8-3.8 3.7-7.5 8.2-15.9 15.7-36 15.8-42.3 0-2.3 1.3-5.8 3.7-9.7 2-3.4 6.4-10.8 9.9-16.6 7.8-12.9 10.2-19.1 10.9-27.8 1.3-16.6-5.5-31.5-19.6-42.8-4.5-3.6-5.7-5.1-4.9-6.1.8-1.2 1-1.2 1.5.1.4.8 2 2.7 3.6 4.3 5.3 4.9 11 4.9 14-.2 1.9-3.3 1.3-6.4-2-9.4-2.3-2-15.6-6.7-19.2-6.7-1.4 0-5.5-.9-8.9-2-8.8-2.8-13.3-2.6-17.1.5-1.6 1.4-3.3 3.4-3.6 4.5-.6 1.7-1.6 1.8-14.8 1.5-10.8-.3-15.8-.9-21-2.5-3.8-1.2-10.1-2.3-14-2.5-7.9-.5-9.7-.7-11.3-1.7-1.9-1.2-22.3-5.8-24.8-5.6-1.3.1-3.6.5-5.1 1zm10.4 8.3c.6-.3.8-1.2.4-1.8-.4-.7.2-.5 1.3.3 1 .8 2.1 1.6 2.4 1.8.3.2-.4.2-1.5 0-1.2-.2-1.9.2-1.8.9.2.8-.4 1-1.4.6-1.1-.4-1.4-.3-.9.5.5.8.2 1-.8.6s-1.6-.1-1.6.9c0 .9-.9 2.2-2 3-1.1.8-1.7 1.7-1.2 2.1.4.4 0 .6-.8.4-.8-.2-1.5.1-1.5.7-.5 3.5-3.2 6.1-3.2 3 0-.8.7-1.5 1.4-1.5.8 0 1.2-.4.8-1-.9-1.4-3.7.1-3.1 1.7.4.9.1 1.2-.7.7-.6-.4-.9-.4-.5.1.4.4.3 1.4-.3 2.1-.7.8-.7 1.4.1 1.9.6.4 1 .3.9-.2-.3-1.7.1-2.4 1.1-1.8.7.4.7 1.1.2 1.8-.5.7-1.6 3.3-2.5 5.9-1.3 4-1.3 4.7-.1 5.2 1.1.4 1.2 1.1.5 2.4-.5 1-.6 2.3-.2 3 1.3 2.1.7 6.7-1 7-.9.1-1.6-.4-1.6-1.2 0-1.3.3-1.3 1.5-.3 1.2.9 1.1.5-.2-2.2-1-1.8-1.3-3-.8-2.7.6.3.9-.5.8-1.9 0-1.4-.3-2.5-.6-2.5-.4 0-.6-1-.7-2.3 0-1.2-.2-2.9-.4-3.7-.2-.8.2-1.4.9-1.3.6.2 1.2-.2 1.2-.7 0-.6-.5-1-1.1-1-.5 0-.7-.5-.4-1 .4-.6 1.1-.8 1.6-.5 1.4.9 1.1-.2-.7-1.9-.8-.9-1.1-1.6-.5-1.6.6 0 1.1-.7 1.1-1.6 0-.8-.4-1.2-1-.9-.6.3-.7-.1-.3-1 .4-1.2.8-1.3 1.3-.5s.9.7 1.3-.4c.4-.9-.1-1.6-1.1-1.9-1.2-.3-1.1-.5.6-.6 1.2 0 2.2-.6 2.2-1.2s-.7-.8-1.6-.5c-1.3.5-1.4.4-.6-.7.7-.8.8-1.8.4-2.2-.4-.5-.1-.5.6-.1 1.7 1 4.4-1.3 3.8-3.1-.4-1-.1-1.1 1.4-.3 2.6 1.4 3 1.3 2.4-.8-.5-1.3-.4-1.4.4-.3 1.1 1.6 3.5.5 2.6-1.2-.3-.7.1-.4 1 .7.8 1 2 1.5 2.5 1.1zm93.4 1.4c.9 1.6 1.7 3.2 1.7 3.5 0 .7-9.3-.4-10.2-1.3-1.1-1 4-6.1 5.5-5.5.7.2 2.1 1.8 3 3.3zM104.8 208.5c3.4-.2 5 .9 3.2 2-.6.4-.8 1.1-.5 1.6.4.5.1.9-.5.9-.7 0-1-.6-.7-1.3.3-.9-.4-1.3-2.3-1.3-1.6 0-2.6.4-2.4 1 .5 1.3-3.3 3.9-4.5 3.2-1.1-.7-.7-4.2.8-6 .9-1 1.8-1.3 2.5-.8.6.5 2.6.8 4.4.7zm.2 3.5c0 .5-.4 1-1 1-.5 0-1-.5-1-1 0-.6.5-1 1-1 .6 0 1 .4 1 1zm13.6 1.7c.2 1.2-.1 2.5-.6 2.8-.5.3-.7 0-.5-.7.4-.9-.2-1.4-1.5-1.5-1.1-.1-1.8.2-1.5.7.3.4-.6 1.5-2 2.4-2.3 1.5-2.5 1.5-3.5-.5-.7-1.1-.9-2.3-.6-2.7.3-.3.6 0 .6.7s.4.9 1 .6c.6-.4.7.1.3 1-.5 1.5-.3 1.5 1.5.4 1.1-.7 2-1.8 1.9-2.3-.1-.6.5-1.2 1.3-1.2 3.2-.3 3.4-.6 1.5-1.5-1.8-.8-1.9-.9-.1-.6 1.1.1 2 1.1 2.2 2.4zm6.4-.7c.8.5 1.1 1 .5 1-.5 0-1.7-.5-2.5-1s-1-1-.5-1c.6 0 1.7.5 2.5 1zm4.1.7c1.3 1.6 1.2 1.7-.3.4-1-.7-1.8-1.5-1.8-1.7 0-.8.8-.3 2.1 1.3zm-4.4 3.5c.1 1-.3 1.8-.9 1.8-.6 0-.8-.3-.5-.7.4-.3.2-1.1-.3-1.8-.7-.8-.6-1.2.3-1.2.7 0 1.4.9 1.4 1.9zm7.8.7c.3.5.2 1.2-.3 1.5-.5.3-.9-.1-.9-.9 0-1.7.3-1.9 1.2-.6zm4 .9c-.3.3-1.1 0-1.8-.7-.9-1-.8-1.1.6-.5 1 .3 1.5.9 1.2 1.2zm6-.8c.3.5.1 1-.4 1-.6 0-1.1-.5-1.1-1 0-.6.2-1 .4-1 .3 0 .8.4 1.1 1zm-24.1 1.5c.3.8.1 1.5-.4 1.5-.6 0-1-.7-1-1.5s.2-1.5.4-1.5.6.7 1 1.5zm27.1.5c-.3.5-1.2 1-1.8 1-.7 0-.6-.4.3-1 1.9-1.2 2.3-1.2 1.5 0zm13.5 0c0 .5-.2 1-.4 1-.3 0-.8-.5-1.1-1-.3-.6-.1-1 .4-1 .6 0 1.1.4 1.1 1zm-28.5 1c.3.6-.1.7-.9.4-1.8-.7-2.1-1.4-.7-1.4.6 0 1.3.4 1.6 1zm10.5 1c0 .5-.2 1-.4 1-.3 0-.8-.5-1.1-1-.3-.6-.1-1 .4-1 .6 0 1.1.4 1.1 1zm49.5.1c-.4.6-.1 1 .6.8 2.4-.3 3.9.1 3.9 1 0 1.1-4.3.9-5.2-.4-.7-.9-.2-2.5.8-2.5.3 0 .2.5-.1 1.1zm9.7 1.3c.7-.4.8-.2.4.5-.6.9-1.1.9-2.2 0s-1.4-.9-1.4.1c0 .8-.2 1.1-.5.8-.3-.3-.2-1.3.1-2.3.6-1.6.8-1.6 1.6-.1.5.9 1.4 1.3 2 1zm-40.6 2.4c-1.7 1.6-1.8 1.6-.5-.5.7-1.2 1.5-2 1.8-1.7.3.2-.3 1.2-1.3 2.2z"/><path d="M109.7 50.1c-.9.5-2.1.8-2.6.5-1.1-.7-4.4 3-4.6 5.3-.2 2.3 2.3 2.1 4-.2.7-.9 1.5-1.4 1.8-1 .4.3.7.1.7-.5 0-.7.9-2.1 2-3.2 2.2-2.2 1.6-2.6-1.3-.9zm-1.8 3c-1.5.9-3.2.2-2.4-1.1.3-.5 1.3-.6 2.1-.3 1.2.4 1.3.8.3 1.4zm-2.4 1.8c.3.5 0 1.3-.6 1.7-.7.4-.9.3-.5-.4.3-.5 0-1.3-.6-1.5-.9-.4-1-.6-.1-.6.6-.1 1.4.3 1.8.8zM98.4 209.2c-.5.7-.9 2-.9 3-.1 1.4.2 1.5 1.9.5 1.9-1 1.9-1.2.3-1.5-.9-.2-1.5-.8-1.1-1.3.3-.5 1-.6 1.6-.3.7.4.8.2.4-.4-.9-1.5-1.3-1.5-2.2 0zM105.5 200c-.3.5-.1 1 .4 1 .6 0 1.1-.5 1.1-1 0-.6-.2-1-.4-1-.3 0-.8.4-1.1 1zM101.5 202c-.3.5-.1 1 .4 1 .6 0 1.1-.5 1.1-1 0-.6-.2-1-.4-1-.3 0-.8.4-1.1 1zM89.4 204.4c.5 1.4.3 1.7-1.1 1.2-1.5-.6-1.6-.5-.5.5 1.7 1.8 3.5-.1 2.1-2.1-.9-1.2-1-1.2-.5.4z"/><path d="M92.8 204.1c1 1.4 1 1.8-.3 2.3-.9.3-1.5 1.3-1.3 2.2.2.9-.3 1.9-1 2.1-.7.3-1.1-.1-1-.9.2-.8-.4-1.2-1.6-1-1.1.2-1.5-.1-1.1-.7.3-.6.1-1.1-.5-1.1-.7 0-.9.8-.5 1.9.4 1.4.1 1.9-.9 1.7-.9-.1-1.9-.5-2.2-.9-1-1-2.6-.9-2 .2.3.5-.2 1.5-1.1 2.2-1.4 1.2-1.5 1.1-.8-1 .5-1.6.4-2.1-.4-1.7-.6.4-1.1 1.5-1.1 2.4 0 1.3-.5 1.2-2-.8-1.1-1.4-2-2-2-1.5 0 .6.6 1.7 1.3 2.4 1 1.1.7 1.2-1.3.7-1.4-.3-1.9-.3-1.3 0 1 .4.9.9-.2 2.1-1.1 1.1-1.3 1.9-.5 2.7.5.7.7 1.6.3 1.9-.3.4-.1.7.5.7.7 0 1.2-.5 1.2-1.1 0-.5.5-.7 1-.4.6.4.8 1 .6 1.3-.2.4.2 1.8 1 3.2 1.2 1.9 1.4 2 .9.5-.4-1.6 0-2.1 1.5-2.2 1.3-.1 1.8.2 1.4 1-.5.8-.3.8.7-.1 1.7-1.6 3.7-1.6 2.1 0-1.5 1.5-1.5 2.8-.1 2.8.5 0 .8-.4.4-.9-.8-1.4 3-3.2 4.2-2 1.4 1.4 4.3 0 3.6-1.7-.5-1.5-2.3-1.5-3.6.1-.5.6-.6.2-.3-.9.5-1.4.3-1.7-1.1-1.1-1 .3-2.2.7-2.8.8-.5.1-1.3.6-1.6 1.1-.4.4-1 .3-1.3-.3-.4-.6-.2-1.1.4-1.1.6 0 .8-.5.4-1.1-.4-.8-.9-.7-1.5.2-.7 1.2-1 1.2-2.1 0-.9-1-1-1.2-.1-.7s1.1.1.7-1.1c-.4-1.4-.4-1.5.4-.4s1 1.1 1.5 0c.4-1.1.6-1.1.6 0 .1 1.1.5 1 1.7-.5.8-1 1.3-1.3.9-.7-.4.9-.1 1.1.9.7.9-.3 1.6-.1 1.6.6 0 .6-.4.9-.8.6-.4-.2-1.4-.1-2.1.3-.8.5-.9 1.1-.4 1.4.6.4 1.9 0 2.9-.8 1.9-1.5 1.9-1.5 0-3-1.1-.8-1.4-1.5-.8-1.5 1.9 0 2.7.4 2.5 1.2-.2.5.1.8.7.8 1.4 0 1.3-1.3-.2-2.9-1.1-1.1-1-1.2.1-.6 1 .6 1.2.4.6-.6-.5-.8.1-.6 1.2.4 1.5 1.3 2.2 1.5 2.5.6.3-.9.6-.8 1.1.3.4 1.3.1 1.6-1.4 1.3-1.9-.4-2.5.5-1.3 1.8 1 1 4.5-1.3 3.8-2.4-.3-.6.4-2.5 1.7-4.2 2.2-3.1 2.2-3.1.1-1.3-1.2 1.1-2.5 1.6-2.9 1.3-.4-.4.1-1.3 1.1-2 1.7-1.2 1.7-1.4-.1-2.8-1.6-1.3-1.7-1.2-.5.2zm-9.8 7.8c0 1.3-2.1 2.6-4.3 2.6-2.7 0-3.9 2.6-2.1 4.6 1.2 1.4 1.2 1.6-.1 1.6-.8 0-1.3-.3-1-.5.7-.8-1.6-3.2-2.5-2.7-.5.3-1.1.1-1.4-.4-.8-1.2 3.5-3.9 5.6-3.5.9.1 2.2-.4 2.9-1.2 1.3-1.6 2.9-1.9 2.9-.5z"/><path d="M74.5 215.1c-.4.6-.5 1.2-.2 1.5.2.3.7-.2 1-1.1.7-1.7.1-2-.8-.4zM106 203.8c0 .6-.8 1.3-1.7 1.5-1.6.4-1.6.5-.1.6 1.8.1 3.4-1.6 2.4-2.6-.3-.4-.6-.1-.6.5zM79.5 207c-.3.6.1.7.9.4 1.8-.7 2.1-1.4.7-1.4-.6 0-1.3.4-1.6 1zM76 208c-.9.6-1 1-.3 1 .6 0 1.5-.5 1.8-1 .8-1.2.4-1.2-1.5 0zM214.7 208.1c.7.7 1.5 1 1.8.7.3-.3-.2-.9-1.2-1.2-1.4-.6-1.5-.5-.6.5zM120.1 208.9c-.7.5-.9 1.1-.4 1.4.5.3 1.5.2 2.2-.2.7-.5.9-1.1.4-1.4-.5-.3-1.5-.2-2.2.2zM211.1 209.3c-.8 1-.7 1.4.2 1.4.8 0 1.4-.6 1.4-1.4 0-.7-.1-1.3-.2-1.3-.2 0-.8.6-1.4 1.3zM59.6 211.8c-.3.5.1.9.9.9s1.2-.4.9-.9c-.3-.4-.7-.8-.9-.8-.2 0-.6.4-.9.8zM63.3 213.3c-.1 1.1-.1 1.8 0 1.6.2-.2.8-1.1 1.5-2 .9-1.2.9-1.6-.1-1.6-.7 0-1.4.9-1.4 2zM67.9 212.4c.6.7.9 2.1.5 3-.8 2.1-2.5 1-1.7-1.2.5-1.3.3-1.4-.6-.6-1 .9-.9 1.7.4 3.8 1.9 2.9 1 3.6-1.2.8-1.3-1.5-1.3-1.5-.3.5 1 2.2 3.9 3.2 4.1 1.5.7-6.9.4-9.2-1.3-9.2-.7 0-.6.5.1 1.4zM110 212c0 .5.5 1 1.1 1 .5 0 .7-.5.4-1-.3-.6-.8-1-1.1-1-.2 0-.4.4-.4 1zM207.6 214.1c-1.5 1.2-2.5 2.4-2.2 2.7.3.3.1 1.1-.5 1.8-.8.9-.5 1.6 1.1 2.4 1.8 1 2.4.8 3.6-.7 1.4-1.7 1.5-1.7 1 .2-.4 1.4.1 2.5 1.7 3.4 2.1 1.3 2.1 1.3.5-.5-1.2-1.3-1.4-2.4-.8-3.4.9-1.4 1.1-1.3 1.4 1 .1.9 1.3 1.4 1.8.7.2-.1-.5-1.3-1.4-2.6-1.5-2.1-1.9-2.2-3.3-1.1-1.4 1.2-1.5 1-1.1-1.3.2-1.5.7-3.1 1.1-3.7 1-1.6 0-1.2-2.9 1.1zm.9 3.1c-.2 3.5-2 4.7-2 1.3 0-1.7 1.2-4.5 1.9-4.5.2 0 .2 1.5.1 3.2z"/><path d="M211.7 213.7c-.4.3-.7 1.1-.7 1.7 0 .6.5.5 1.2-.2.6-.6.9-1.4.7-1.7-.3-.3-.9-.2-1.2.2zM219 214.1c0 .5.5.7 1 .4.6-.3 1-.8 1-1.1 0-.2-.4-.4-1-.4-.5 0-1 .5-1 1.1zM214.1 215.4c-.1 1.1.4 1.6 1.3 1.3.7-.3 2 0 2.7.6 1.1 1 1.1.9 0-.5-.7-1-1.7-1.6-2.1-1.3-.5.3-1.1-.1-1.3-.7-.3-.8-.6-.5-.6.6zM57.5 216c-.3.5-.1 1 .4 1 .6 0 1.1-.5 1.1-1 0-.6-.2-1-.4-1-.3 0-.8.4-1.1 1zM87.5 216c-.4.6-.4 1.4 0 1.8.6.7 1 .8 3.6 1.1.5 0 .7.5.4 1.1-.3.5 0 1 .8 1 .9 0 1.4-.9 1.3-2.3-.1-1.2-.7-2.1-1.5-1.9-.7.1-1.9-.2-2.6-.8-1-.8-1.5-.8-2 0zM62 216.9c0 .7-.5.9-1.2.5-.7-.5-.8-.3-.3.5.5.9 1 1 1.8.2.6-.6.8-1.4.4-1.8-.4-.3-.7-.1-.7.6zM59 219.9c0 .6.4 1.3 1 1.6.6.3.7-.1.4-.9-.7-1.8-1.4-2.1-1.4-.7zM63 219.5c0 .5.5 1.7 1 2.5s1 1 1 .5c0-.6-.5-1.7-1-2.5s-1-1.1-1-.5zM94.5 222.1c.3 2.9 1.5 5.4 1.5 3 0-.7.5-.9 1.1-.5.6.3 1.5 0 2-.7.4-.7 1.1-1 1.5-.6.4.3.3 1.2-.2 2-.5.7.3-.1 1.8-1.8 3.2-3.5 3.6-5 .9-3.6-1 .6-2.1.8-2.4.4-.4-.3-1.9-.7-3.5-.9-2.7-.3-2.9-.1-2.7 2.7zm8-.9c.5-.4.5-.1.1.6s-1.2 1-1.7.7c-.5-.4-1.5-.3-2.1.2-2.1 1.2-3.5 1.2-3.5-.3 0-.7.4-1.1.8-.8.4.2 1 0 1.4-.6.4-.7 1.2-.7 2.4 0 1 .5 2.2.6 2.6.2zM111.5 221.1c-1.1 1.7.1 2.1 1.5.4.8-.9.8-1.5.2-1.5-.6 0-1.4.5-1.7 1.1zM69.5 221.9c-.3.5 0 1.3.6 1.7.8.5.9.3.4-.6-.6-1-.4-1.2.8-.7 1 .3 1.7.2 1.7-.3 0-1.3-2.7-1.3-3.5-.1zM61.5 222.9c-.3.5-.2 1.2.3 1.5.5.3.9-.1.9-.9 0-1.7-.3-1.9-1.2-.6zM90.5 223.1c-.4.6-.4 1.3-.1 1.6.3.4.6 0 .6-.8 0-1.1.2-1.1 1 .1.8 1.3 1 1.2 1-.3 0-1.9-1.5-2.3-2.5-.6zM134.2 223.7c-1.7 3-1.5 3.7.4 1.9.8-.9 1.4-2.2 1.1-2.9-.2-.7-.8-.4-1.5 1zM84.5 224c.3.5.8 1 1.1 1 .2 0 .4-.5.4-1 0-.6-.5-1-1.1-1-.5 0-.7.4-.4 1zM142 226c0 .5.9.8 2 .7 2.1-.1 1.8-1-.5-1.3-.8-.1-1.5.2-1.5.6zM195.5 228c-.3.5-.1 1 .4 1 .6 0 1.1-.5 1.1-1 0-.6-.2-1-.4-1-.3 0-.8.4-1.1 1z"/></svg>